<?xml version="1.0" encoding="utf-8"?>
<!-- Generator: Adobe Illustrator 23.1.0, SVG Export Plug-In . SVG Version: 6.00 Build 0)  -->
<svg version="1.1" id="Layer_1" xmlns="http://www.w3.org/2000/svg" xmlns:xlink="http://www.w3.org/1999/xlink" x="0px" y="0px"
	 viewBox="0 0 260 236" style="enable-background:new 0 0 260 236;" xml:space="preserve">
<style type="text/css">
	.st0{fill:#DD7128;}
	.st1{fill:#705C52;}
	.st2{fill:#EDE71B;}
	.st3{fill:#14050B;}
</style>
<polygon class="st0" points="186.2,138.9 76.8,140.2 73.6,146.8 82.1,157.3 174.2,157.3 186.6,154.9 190.3,144 "/>
<polygon class="st1" points="186.2,110.6 187.9,120.3 184.2,127.7 80.5,125.9 78.2,105.7 "/>
<path class="st2" d="M186.2,107.8c0,0,7.7-12-10.7-11.2c-18.4,0.8-101.9,1.3-101.9,1.3l-2.2,27.3l7.3,6.1l6.4-2.3l2.3-15.1l4.3-3.8
	c0,0,5.4-1.1,6.6,3.8c1.3,4.9,3.7,9.1,3.7,9.1l9.6-1.9l4.1-10.5L186.2,107.8z"/>
<path class="st0" d="M184.2,60.8c0,0-14.1-31.5-53.5-28.9s-57,30.9-57,49c0,7.9,14.6,7.4,14.6,7.4l96,0c0,0,6.1-1.5,6.1-6.4
	C190.3,77.1,184.2,60.8,184.2,60.8z"/>
<g>
	<g>
		<g>
			<path class="st3" d="M193.1,77.7c-5.2-28.1-31.1-48.4-61.4-48.4c-30.4,0-56.2,20.4-61.4,48.4c-0.6,3.2,0.3,6.4,2.5,8.9
				c2.2,2.4,5.4,3.8,8.8,3.8h100.3c3.4,0,6.6-1.4,8.8-3.8C192.8,84.1,193.7,80.9,193.1,77.7z M186.5,83.3c-1.2,1.3-2.8,2-4.6,2H81.5
				c-1.8,0-3.5-0.7-4.6-2c-1.2-1.3-1.7-3.1-1.4-4.8c4.8-25.7,28.4-44.3,56.2-44.3c27.7,0,51.4,18.6,56.2,44.3
				C188.2,80.3,187.7,82,186.5,83.3z"/>
			<path class="st3" d="M190.3,140.1c-1.5-1.7-3.6-2.7-6-2.7H79c-2.4,0-4.5,1-6,2.7c-1.5,1.7-2,4-1.4,6.1l0.9,3.4
				c1.6,6.1,7.3,10.3,14,10.3h90.4c6.6,0,12.4-4.2,14-10.3l0.9-3.4C192.3,144.1,191.8,141.9,190.3,140.1z M176.9,154.9H86.5
				c-4.2,0-7.7-2.6-8.7-6.4l-0.9-3.4c-0.2-0.6,0-1.3,0.4-1.8c0.4-0.5,1.1-0.8,1.8-0.8h105.3c0.7,0,1.3,0.3,1.8,0.8
				c0.4,0.5,0.6,1.2,0.4,1.8l-0.9,3.4C184.6,152.2,181,154.9,176.9,154.9z"/>
			<g>
				<g>
					<path class="st3" d="M110.6,54.4c0,1.5-1.9,2.7-4.3,2.7c-2.4,0-4.3-1.2-4.3-2.7s1.9-2.7,4.3-2.7
						C108.7,51.7,110.6,52.9,110.6,54.4z"/>
				</g>
				<path class="st3" d="M124.3,45.4c0,1.5-1.9,2.7-4.3,2.7c-2.4,0-4.3-1.2-4.3-2.7c0-1.5,1.9-2.7,4.3-2.7
					C122.4,42.8,124.3,44,124.3,45.4z"/>
				<g>
					<path class="st3" d="M124.3,60.8c0,1.5-1.9,2.7-4.3,2.7c-2.4,0-4.3-1.2-4.3-2.7s1.9-2.7,4.3-2.7
						C122.4,58.2,124.3,59.4,124.3,60.8z"/>
				</g>
				<path class="st3" d="M149.3,45.4c0,1.5-1.9,2.7-4.3,2.7c-2.4,0-4.3-1.2-4.3-2.7c0-1.5,1.9-2.7,4.3-2.7
					C147.4,42.8,149.3,44,149.3,45.4z"/>
				<g>
					<path class="st3" d="M149.3,60.8c0,1.5-1.9,2.7-4.3,2.7c-2.4,0-4.3-1.2-4.3-2.7s1.9-2.7,4.3-2.7
						C147.4,58.2,149.3,59.4,149.3,60.8z"/>
				</g>
				<g>
					<path class="st3" d="M134.8,52.7c0,1.5-1.9,2.7-4.3,2.7c-2.4,0-4.3-1.2-4.3-2.7s1.9-2.7,4.3-2.7
						C132.9,50,134.8,51.2,134.8,52.7z"/>
				</g>
				<g>
					<path class="st3" d="M161.3,52.7c0,1.5-1.9,2.7-4.3,2.7c-2.4,0-4.3-1.2-4.3-2.7s1.9-2.7,4.3-2.7
						C159.4,50,161.3,51.2,161.3,52.7z"/>
				</g>
			</g>
			<path class="st3" d="M188.4,110.4c0.3-0.2,0.6-0.5,0.8-0.8c1.9-2,2.8-4.7,2.6-7.3c-0.5-4.8-5.1-8.5-10.4-8.5H79.7
				c-5.6,0-10.1,4.3-10.1,9.5c0,0.1,0,0.1,0,0.2c0,0.2,0,0.3,0,0.5v18.8c0,5.1,4.1,9.6,9.3,10c0.4,0,0.7,0.1,1.1,0.1
				c3.7,0,7-1.9,8.9-4.7h92c6,0,11-4.6,11-10.3C191.8,114.9,190.4,112.3,188.4,110.4z M84.8,115.2v7.9c0,2.7-2.4,4.8-5.3,4.5
				c-2.4-0.2-4.3-2.4-4.3-4.9l0-18.7c0-0.1,0-0.3,0-0.4l0-0.1l0-0.1c0-0.1,0-0.2,0-0.3c0.1-2.3,2.1-4.2,4.5-4.2h101.7
				c2.5,0,4.6,1.7,4.9,3.8c0.1,1.2-0.3,2.4-1.2,3.3c-0.9,0.9-2.1,1.4-3.4,1.4h-62.9c-4.2,0-7.6,3.2-7.6,7.1v1.2
				c0,2.6-2.4,4.7-5.2,4.4c-2.4-0.2-4.2-2.3-4.2-4.7v-0.4c0-4.2-3.7-7.7-8.1-7.7h-0.7C88.4,107.6,84.8,111,84.8,115.2z M99.6,123
				h-9.3v-7.7c0-1.3,1.2-2.4,2.6-2.4h0.7c1.4,0,2.6,1.1,2.6,2.4v0.4C96.2,118.5,97.6,121.1,99.6,123z M180.8,123h-67.3
				c2-1.8,3.2-4.3,3.2-7v-1.2c0-1.1,0.9-1.9,2-1.9h62.1c2.9,0,5.3,2.3,5.3,5.1C186.2,120.7,183.8,123,180.8,123z"/>
		</g>
	</g>
</g>
<g>
	<path class="st3" d="M61.1,198.1v4.3c0,0.6-0.1,1-0.2,1.4c-0.1,0.3-0.3,0.7-0.6,0.9c-0.3,0.3-0.7,0.5-1.2,0.8
		c-1.4,0.7-2.7,1.3-3.9,1.6c-1.3,0.3-2.6,0.5-4.1,0.5c-1.7,0-3.3-0.3-4.7-0.8c-1.4-0.5-2.6-1.3-3.6-2.3c-1-1-1.8-2.2-2.3-3.7
		s-0.8-3.1-0.8-4.8c0-1.7,0.3-3.3,0.8-4.8c0.5-1.5,1.3-2.7,2.3-3.7c1-1,2.2-1.8,3.7-2.3c1.5-0.5,3.1-0.8,4.9-0.8
		c1.5,0,2.9,0.2,4,0.6c1.2,0.4,2.1,0.9,2.8,1.5c0.7,0.6,1.3,1.3,1.6,1.9s0.6,1.3,0.6,1.8c0,0.6-0.2,1.1-0.6,1.5
		c-0.4,0.4-0.9,0.6-1.5,0.6c-0.3,0-0.6-0.1-0.9-0.2c-0.3-0.2-0.6-0.4-0.8-0.6c-0.6-0.9-1-1.5-1.4-2c-0.4-0.4-0.9-0.8-1.6-1.1
		s-1.5-0.5-2.5-0.5c-1.1,0-2,0.2-2.8,0.5s-1.5,0.9-2.1,1.6c-0.6,0.7-1,1.5-1.3,2.5c-0.3,1-0.5,2.1-0.5,3.3c0,2.6,0.6,4.7,1.8,6.1
		c1.2,1.4,2.9,2.1,5.1,2.1c1.1,0,2-0.1,3-0.4c0.9-0.3,1.9-0.7,2.8-1.2v-3.6h-3.5c-0.8,0-1.5-0.1-1.9-0.4c-0.4-0.3-0.7-0.7-0.7-1.3
		c0-0.5,0.2-0.9,0.5-1.2c0.4-0.3,0.9-0.5,1.5-0.5H58c0.6,0,1.2,0.1,1.6,0.2c0.4,0.1,0.8,0.4,1.1,0.8C61,196.7,61.1,197.3,61.1,198.1
		z"/>
	<path class="st3" d="M80.3,188.2H70v5.5h9.4c0.7,0,1.2,0.2,1.6,0.5c0.3,0.3,0.5,0.7,0.5,1.2c0,0.5-0.2,0.9-0.5,1.2
		c-0.3,0.3-0.9,0.5-1.6,0.5H70v6.4h10.6c0.7,0,1.3,0.2,1.6,0.5c0.4,0.3,0.5,0.8,0.5,1.3c0,0.5-0.2,1-0.5,1.3
		c-0.4,0.3-0.9,0.5-1.6,0.5H68.2c-1,0-1.7-0.2-2.1-0.7c-0.4-0.4-0.7-1.1-0.7-2.1v-16.9c0-0.7,0.1-1.2,0.3-1.6
		c0.2-0.4,0.5-0.7,0.9-0.9c0.4-0.2,0.9-0.3,1.6-0.3h12c0.7,0,1.3,0.2,1.6,0.5c0.4,0.3,0.5,0.7,0.5,1.3c0,0.5-0.2,1-0.5,1.3
		C81.5,188.1,81,188.2,80.3,188.2z"/>
	<path class="st3" d="M92.3,187.1l8.8,13.2v-13.4c0-0.9,0.2-1.5,0.6-2c0.4-0.4,0.9-0.7,1.5-0.7c0.7,0,1.2,0.2,1.5,0.7
		c0.4,0.4,0.6,1.1,0.6,2v17.7c0,2-0.8,3-2.5,3c-0.4,0-0.8-0.1-1.1-0.2c-0.3-0.1-0.6-0.3-0.9-0.6c-0.3-0.3-0.6-0.6-0.8-0.9
		s-0.5-0.7-0.7-1.1l-8.5-13.1V205c0,0.9-0.2,1.5-0.6,1.9s-0.9,0.7-1.5,0.7c-0.6,0-1.2-0.2-1.5-0.7c-0.4-0.4-0.6-1.1-0.6-1.9v-17.3
		c0-0.7,0.1-1.3,0.2-1.7c0.2-0.5,0.5-0.8,1-1.1c0.4-0.3,0.9-0.4,1.5-0.4c0.4,0,0.8,0.1,1.1,0.2c0.3,0.1,0.5,0.3,0.8,0.5
		c0.2,0.2,0.4,0.5,0.7,0.9C91.8,186.3,92.1,186.7,92.3,187.1z"/>
	<path class="st3" d="M125.1,188.2h-10.3v5.5h9.4c0.7,0,1.2,0.2,1.6,0.5c0.3,0.3,0.5,0.7,0.5,1.2c0,0.5-0.2,0.9-0.5,1.2
		c-0.3,0.3-0.9,0.5-1.6,0.5h-9.4v6.4h10.6c0.7,0,1.3,0.2,1.6,0.5c0.4,0.3,0.5,0.8,0.5,1.3c0,0.5-0.2,1-0.5,1.3
		c-0.4,0.3-0.9,0.5-1.6,0.5H113c-1,0-1.7-0.2-2.1-0.7c-0.4-0.4-0.7-1.1-0.7-2.1v-16.9c0-0.7,0.1-1.2,0.3-1.6
		c0.2-0.4,0.5-0.7,0.9-0.9c0.4-0.2,0.9-0.3,1.6-0.3h12c0.7,0,1.3,0.2,1.6,0.5c0.4,0.3,0.5,0.7,0.5,1.3c0,0.5-0.2,1-0.5,1.3
		C126.3,188.1,125.8,188.2,125.1,188.2z"/>
	<path class="st3" d="M137.3,197.6h-1.6v7.2c0,1-0.2,1.7-0.6,2.1c-0.4,0.4-1,0.7-1.6,0.7c-0.7,0-1.3-0.2-1.7-0.7
		c-0.4-0.5-0.6-1.2-0.6-2.1v-17.3c0-1,0.2-1.7,0.7-2.1c0.4-0.4,1.1-0.7,2.1-0.7h7.4c1,0,1.9,0,2.6,0.1s1.4,0.3,2,0.5
		c0.7,0.3,1.3,0.7,1.9,1.3c0.5,0.6,1,1.2,1.2,1.9s0.4,1.5,0.4,2.3c0,1.7-0.5,3-1.4,4s-2.4,1.7-4.3,2.1c0.8,0.4,1.6,1.1,2.3,1.9
		c0.7,0.8,1.4,1.7,2,2.7s1,1.8,1.3,2.6s0.5,1.3,0.5,1.6c0,0.3-0.1,0.6-0.3,0.9s-0.4,0.5-0.8,0.7c-0.3,0.2-0.7,0.3-1.1,0.3
		c-0.5,0-0.9-0.1-1.3-0.4c-0.3-0.2-0.6-0.5-0.9-0.9s-0.6-0.9-1-1.6l-1.8-3c-0.7-1.1-1.2-2-1.8-2.5c-0.5-0.6-1-1-1.6-1.2
		C138.8,197.7,138.1,197.6,137.3,197.6z M139.9,188.1h-4.2v6.2h4.1c1.1,0,2-0.1,2.8-0.3s1.3-0.5,1.7-1s0.6-1.1,0.6-1.9
		c0-0.6-0.2-1.2-0.5-1.6c-0.3-0.5-0.8-0.8-1.3-1.1C142.5,188.2,141.5,188.1,139.9,188.1z"/>
	<path class="st3" d="M163.7,184.3c2.3,0,4.3,0.5,6,1.4c1.7,0.9,2.9,2.3,3.8,4c0.9,1.7,1.3,3.8,1.3,6.1c0,1.7-0.2,3.3-0.7,4.7
		c-0.5,1.4-1.2,2.7-2.1,3.7s-2.1,1.8-3.5,2.4c-1.4,0.6-2.9,0.8-4.7,0.8c-1.8,0-3.3-0.3-4.7-0.9c-1.4-0.6-2.6-1.4-3.5-2.4
		s-1.6-2.3-2.1-3.7s-0.7-3-0.7-4.7c0-1.7,0.2-3.3,0.7-4.8c0.5-1.4,1.2-2.7,2.2-3.7c0.9-1,2.1-1.8,3.4-2.3
		C160.4,184.6,161.9,184.3,163.7,184.3z M170.1,195.9c0-1.6-0.3-3.1-0.8-4.3c-0.5-1.2-1.3-2.1-2.3-2.7c-1-0.6-2.1-0.9-3.4-0.9
		c-0.9,0-1.8,0.2-2.5,0.5s-1.4,0.8-2,1.5c-0.6,0.7-1,1.5-1.3,2.5c-0.3,1-0.5,2.2-0.5,3.4c0,1.3,0.2,2.4,0.5,3.5s0.8,1.9,1.4,2.6
		c0.6,0.7,1.3,1.2,2,1.5c0.8,0.3,1.6,0.5,2.5,0.5c1.2,0,2.2-0.3,3.2-0.9c1-0.6,1.8-1.5,2.3-2.7C169.8,199.2,170.1,197.7,170.1,195.9
		z"/>
	<path class="st3" d="M178.7,197.9v-10.8c0-0.9,0.2-1.6,0.6-2.1c0.4-0.5,1-0.7,1.6-0.7c0.7,0,1.3,0.2,1.7,0.7
		c0.4,0.5,0.6,1.1,0.6,2.1v11.1c0,1.3,0.1,2.3,0.4,3.2s0.8,1.5,1.5,2c0.7,0.5,1.7,0.7,3,0.7c1.8,0,3-0.5,3.8-1.4s1.1-2.4,1.1-4.3
		v-11.1c0-0.9,0.2-1.6,0.6-2.1c0.4-0.5,1-0.7,1.6-0.7s1.2,0.2,1.7,0.7c0.4,0.5,0.6,1.1,0.6,2.1v10.8c0,1.8-0.2,3.2-0.5,4.4
		s-1,2.2-1.9,3.1c-0.8,0.8-1.8,1.3-2.9,1.7c-1.1,0.3-2.4,0.5-3.8,0.5c-1.7,0-3.2-0.2-4.5-0.6c-1.2-0.4-2.3-1-3.1-1.7
		c-0.8-0.8-1.4-1.8-1.7-3S178.7,199.6,178.7,197.9z"/>
	<path class="st3" d="M219.6,200.4c0,1.4-0.4,2.6-1.1,3.7c-0.7,1.1-1.7,1.9-3.1,2.5c-1.3,0.6-2.9,0.9-4.8,0.9c-2.2,0-4-0.4-5.5-1.3
		c-1-0.6-1.9-1.4-2.5-2.4c-0.6-1-1-2-1-2.9c0-0.6,0.2-1,0.6-1.4s0.9-0.6,1.5-0.6c0.5,0,0.9,0.2,1.2,0.5c0.3,0.3,0.6,0.8,0.9,1.4
		c0.3,0.7,0.6,1.3,0.9,1.8s0.8,0.9,1.4,1.2c0.6,0.3,1.4,0.5,2.4,0.5c1.3,0,2.4-0.3,3.3-0.9c0.8-0.6,1.3-1.4,1.3-2.4
		c0-0.7-0.2-1.4-0.7-1.8s-1-0.8-1.8-1.1s-1.7-0.5-2.9-0.8c-1.6-0.4-3-0.8-4.1-1.3c-1.1-0.5-2-1.2-2.6-2.1c-0.6-0.9-1-2-1-3.3
		c0-1.2,0.3-2.3,1-3.3c0.7-1,1.7-1.7,2.9-2.2s2.8-0.8,4.5-0.8c1.4,0,2.6,0.2,3.6,0.5s1.8,0.8,2.5,1.4c0.7,0.6,1.1,1.2,1.5,1.8
		s0.5,1.2,0.5,1.8c0,0.5-0.2,1-0.6,1.5c-0.4,0.4-0.9,0.7-1.4,0.7c-0.5,0-0.9-0.1-1.2-0.4c-0.3-0.3-0.6-0.7-0.9-1.3
		c-0.4-0.8-0.9-1.5-1.5-2c-0.6-0.5-1.5-0.7-2.8-0.7c-1.2,0-2.1,0.3-2.8,0.8s-1.1,1.1-1.1,1.9c0,0.4,0.1,0.8,0.4,1.2s0.6,0.6,1,0.8
		s0.9,0.4,1.3,0.6s1.2,0.3,2.2,0.6c1.3,0.3,2.4,0.6,3.4,1c1,0.4,1.9,0.8,2.6,1.3c0.7,0.5,1.3,1.2,1.7,1.9
		C219.4,198.4,219.6,199.3,219.6,200.4z"/>
</g>
</svg>
